<?xml version="1.0" encoding="UTF-8"?>
<svg width="50px" height="50px" viewBox="0 0 50 50" version="1.1" xmlns="http://www.w3.org/2000/svg" xmlns:xlink="http://www.w3.org/1999/xlink">
    <title>icon</title>
    <defs>
        <filter color-interpolation-filters="auto" id="filter-1">
            <feColorMatrix in="SourceGraphic" type="matrix" values="0 0 0 0 1.000000 0 0 0 0 1.000000 0 0 0 0 1.000000 0 0 0 1.000000 0"></feColorMatrix>
        </filter>
    </defs>
    <g id="Page-1" stroke="none" stroke-width="1" fill="none" fill-rule="evenodd">
        <g id="icon" filter="url(#filter-1)">
            <g>
                <path d="M25,0 L25,8 L25,8 C15.6111593,8 8,15.6111593 8,25 C8,34.3888407 15.6111593,42 25,42 L25,50 C11.1928813,50 0,38.8071187 0,25 C0,11.1928813 11.1928813,0 25,0 Z" id="Combined-Shape" fill="#000000" fill-rule="nonzero"></path>
                <g id="Hours" transform="translate(25.000000, 0.000000)" fill="#000000">
                    <path d="M-4.54747351e-14,0 C1.38071187,-2.53632657e-16 2.5,1.11928813 2.5,2.5 L2.5,5.5 C2.5,6.88071187 1.38071187,8 -4.54747351e-14,8 L-4.54747351e-14,8 L-4.54747351e-14,8 L-4.54747351e-14,0 Z" id="Rectangle"></path>
                    <path d="M10.4999996,2.81346636 C11.8807115,2.81346636 12.9999996,3.93275449 12.9999996,5.31346636 L12.9999996,8.31346636 C12.9999996,9.69417824 11.8807115,10.8134664 10.4999996,10.8134664 C9.11928776,10.8134664 7.99999964,9.69417824 7.99999964,8.31346636 L7.99999964,5.31346636 C7.99999964,3.93275449 9.11928776,2.81346636 10.4999996,2.81346636 Z" id="Rectangle" transform="translate(10.500000, 6.813466) rotate(30.000000) translate(-10.500000, -6.813466) "></path>
                    <path d="M18.1865332,10.5000001 C19.5672451,10.5000001 20.6865332,11.6192882 20.6865332,13.0000001 L20.6865332,16.0000001 C20.6865332,17.380712 19.5672451,18.5000001 18.1865332,18.5000001 C16.8058213,18.5000001 15.6865332,17.380712 15.6865332,16.0000001 L15.6865332,13.0000001 C15.6865332,11.6192882 16.8058213,10.5000001 18.1865332,10.5000001 Z" id="Rectangle" transform="translate(18.186533, 14.500000) rotate(60.000000) translate(-18.186533, -14.500000) "></path>
                    <rect id="Rectangle" transform="translate(21.000000, 25.000000) rotate(90.000000) translate(-21.000000, -25.000000) " x="18.5" y="21" width="5" height="8" rx="2.5"></rect>
                    <path d="M18.1865332,31.4999999 C19.5672451,31.4999999 20.6865332,32.619288 20.6865332,33.9999999 L20.6865332,36.9999999 C20.6865332,38.3807118 19.5672451,39.4999999 18.1865332,39.4999999 C16.8058213,39.4999999 15.6865332,38.3807118 15.6865332,36.9999999 L15.6865332,33.9999999 C15.6865332,32.619288 16.8058213,31.4999999 18.1865332,31.4999999 Z" id="Rectangle" transform="translate(18.186533, 35.500000) rotate(120.000000) translate(-18.186533, -35.500000) "></path>
                    <path d="M10.4999996,39.1865336 C11.8807115,39.1865336 12.9999996,40.3058218 12.9999996,41.6865336 L12.9999996,44.6865336 C12.9999996,46.0672455 11.8807115,47.1865336 10.4999996,47.1865336 C9.11928776,47.1865336 7.99999964,46.0672455 7.99999964,44.6865336 L7.99999964,41.6865336 C7.99999964,40.3058218 9.11928776,39.1865336 10.4999996,39.1865336 Z" id="Rectangle" transform="translate(10.500000, 43.186534) rotate(150.000000) translate(-10.500000, -43.186534) "></path>
                    <path d="M2.5,42 L2.5,42 L2.5,42 L2.5,50 C1.11928813,50 -5.51525345e-15,48.8807119 -5.68434189e-15,47.5 L-5.68434189e-15,44.5 C-5.85343032e-15,43.1192881 1.11928813,42 2.5,42 Z" id="Rectangle" transform="translate(1.250000, 46.000000) rotate(180.000000) translate(-1.250000, -46.000000) "></path>
                </g>
            </g>
        </g>
    </g>
</svg>